# xmcd
#
# Track frame offsets: 
#        150
#        32072
#        48807
#        72341
#        97837
#        133573
#        153571
#        168356
#
# Disc length: 2439 seconds
#
# Revision: 0
# Processed by: cddbd v1.5.2PL0 Copyright (c) Steve Scherf et al.
# Submitted via: ExactAudioCopy v1.0b1
#
DISCID=5e098508
DTITLE=T-Model Ford and Gravelroad - Taledragger
DYEAR=2011
DGENRE=Blues
TTITLE0=Same old train
TTITLE1=It's coming home
TTITLE2=Someone's knocking on my door
TTITLE3=How many more years
TTITLE4=Big legged woman
TTITLE5=I worn my body for so long
TTITLE6=Red dress
TTITLE7=Little red rooster
EXTD=
EXTT0=
EXTT1=
EXTT2=
EXTT3=
EXTT4=
EXTT5=
EXTT6=
EXTT7=
PLAYORDER=
